<svg width="16" height="16" viewBox="0 0 16 16" fill="none" xmlns="http://www.w3.org/2000/svg">
<path d="M13.7143 1.33334H2.28273C1.75892 1.33334 1.33333 1.76489 1.33333 2.29465V13.7054C1.33333 14.2351 1.75892 14.6667 2.28273 14.6667H13.7143C14.2381 14.6667 14.6667 14.2351 14.6667 13.7054V2.29465C14.6667 1.76489 14.2381 1.33334 13.7143 1.33334ZM5.36309 12.7619H3.3869V6.39882H5.36607V12.7619H5.36309ZM4.37499 5.52977C3.74107 5.52977 3.22916 5.01489 3.22916 4.38394C3.22916 3.75299 3.74107 3.23811 4.37499 3.23811C5.00595 3.23811 5.52083 3.75299 5.52083 4.38394C5.52083 5.01787 5.00892 5.52977 4.37499 5.52977ZM12.7708 12.7619H10.7946V9.66668C10.7946 8.92858 10.7798 7.97918 9.76785 7.97918C8.73809 7.97918 8.58035 8.78275 8.58035 9.61311V12.7619H6.60416V6.39882H8.5V7.26787H8.52678C8.79166 6.76787 9.4375 6.24108 10.3988 6.24108C12.3988 6.24108 12.7708 7.55953 12.7708 9.27382V12.7619Z" fill="white"/>
</svg>
